<svg xmlns="http://www.w3.org/2000/svg" xmlns:xlink="http://www.w3.org/1999/xlink" version="1.1" x="0px" y="0px" viewBox="0 0 1024 1280" style="enable-background:new 0 0 1024 1024;" xml:space="preserve"><g><g><path d="M697.36,600.32H326.64c-59.26,0-107.47-48.21-107.47-107.47V224.64c0-59.26,48.21-107.47,107.47-107.47l370.72-0.01    c59.26,0,107.47,48.21,107.47,107.47v268.22C804.83,552.11,756.62,600.32,697.36,600.32z M326.64,157.17    c-37.2,0-67.47,30.27-67.47,67.47v268.21c0,37.2,30.27,67.47,67.47,67.47h370.72c37.2,0,67.47-30.27,67.47-67.47V224.63    c0-37.2-30.27-67.47-67.47-67.47L326.64,157.17z"/></g><g><path d="M405.93,377.42c-40.2,0-72.9-32.7-72.9-72.9s32.7-72.9,72.9-72.9s72.9,32.7,72.9,72.9S446.13,377.42,405.93,377.42z     M405.93,271.62c-18.14,0-32.9,14.76-32.9,32.9s14.76,32.9,32.9,32.9c18.14,0,32.9-14.76,32.9-32.9S424.07,271.62,405.93,271.62z"/></g><g><path d="M618.07,377.42c-40.2,0-72.9-32.7-72.9-72.9s32.7-72.9,72.9-72.9s72.9,32.7,72.9,72.9S658.27,377.42,618.07,377.42z     M618.07,271.62c-18.14,0-32.9,14.76-32.9,32.9s14.76,32.9,32.9,32.9c18.14,0,32.9-14.76,32.9-32.9S636.21,271.62,618.07,271.62z"/></g><g><rect x="417.75" y="445.4" width="188.5" height="40"/></g><g><path d="M878.32,918.02h-40V786.19c0-48.92-39.79-88.71-88.71-88.71H274.38c-48.92,0-88.71,39.79-88.71,88.71v131.83h-40V786.19    c0-70.97,57.74-128.71,128.71-128.71h475.23c70.97,0,128.71,57.74,128.71,128.71V918.02z"/></g><g><path d="M632.55,697.5h-241.1V560.33h241.1V697.5z M431.45,657.5h161.1v-57.17h-161.1V657.5z"/></g><g><path d="M818.24,457.58h-51.71V277.26h51.71c30.39,0,55.11,24.72,55.11,55.11v70.1C873.35,432.86,848.63,457.58,818.24,457.58z     M806.53,417.58h11.71c8.33,0,15.11-6.78,15.11-15.11v-70.1c0-8.33-6.78-15.11-15.11-15.11h-11.71V417.58z"/></g><g><path d="M205.73,457.57c-14.7,0-28.53-5.73-38.94-16.13c-10.41-10.41-16.14-24.25-16.14-38.97v-70.1    c0-30.39,24.72-55.11,55.11-55.11h51.71v180.31h-51.71C205.75,457.57,205.74,457.57,205.73,457.57z M205.76,317.26    c-8.33,0-15.11,6.78-15.11,15.11v70.1c0,4.04,1.57,7.83,4.42,10.68c2.85,2.85,6.64,4.42,10.67,4.42c0,0,0,0,0.01,0h11.72V317.26    H205.76z"/></g><g><rect x="688.9" y="825.71" width="40" height="92.31"/></g><g><rect x="295.1" y="825.71" width="40" height="92.31"/></g></g></svg>